<?xml version="1.0" standalone="no"?>
<!DOCTYPE svg PUBLIC "-//W3C//DTD SVG 20010904//EN"
 "http://www.w3.org/TR/2001/REC-SVG-20010904/DTD/svg10.dtd">
<svg version="1.0" xmlns="http://www.w3.org/2000/svg"
 width="965.000000pt" height="920.000000pt" viewBox="0 0 965.000000 920.000000"
 preserveAspectRatio="xMidYMid meet">
<metadata>
Created by potrace 1.15, written by Peter Selinger 2001-2017
</metadata>
<g transform="translate(0.000000,920.000000) scale(0.100000,-0.100000)"
fill="#000000" stroke="none">
<path d="M4150 9182 c0 -10 9 -34 19 -55 10 -20 15 -37 10 -37 -5 0 -9 -4 -9
-10 0 -5 9 -10 20 -10 11 0 20 -4 20 -9 0 -4 -11 -6 -25 -3 -27 5 -30 -7 -25
-83 3 -44 4 -49 15 -58 6 -5 3 -6 -8 -3 -16 5 -17 0 -14 -52 2 -31 9 -67 16
-80 6 -12 9 -27 6 -32 -3 -6 1 -10 9 -10 9 0 16 -5 16 -11 0 -5 -4 -7 -10 -4
-12 8 -6 -13 27 -85 40 -86 61 -145 52 -145 -2 0 12 -15 30 -33 31 -32 56 -80
47 -89 -2 -2 -10 10 -17 26 -19 42 -31 39 -14 -3 8 -18 11 -36 8 -40 -4 -3 -1
-6 6 -6 6 0 10 -10 7 -23 -2 -13 2 -48 10 -78 8 -30 15 -66 16 -81 1 -15 4
-25 8 -23 4 3 10 -6 12 -20 4 -17 0 -25 -11 -27 -11 -2 -12 -6 -4 -11 17 -11
45 21 35 41 -4 9 -5 39 -2 66 5 46 6 48 20 31 9 -11 10 -16 3 -11 -9 5 -13 0
-13 -13 0 -12 5 -21 11 -21 8 0 8 -4 0 -14 -9 -11 -9 -20 -2 -35 6 -11 11 -38
11 -60 0 -22 5 -43 10 -46 6 -4 8 -11 4 -16 -3 -5 -1 -15 4 -22 14 -18 26 -90
13 -82 -6 3 -11 13 -11 20 0 8 -9 29 -20 47 -11 18 -20 42 -20 53 -1 18 -1 19
-11 3 -7 -12 -6 -24 1 -37 14 -27 13 -31 -7 -32 -11 0 -13 -3 -5 -6 17 -7 15
-24 -3 -21 -19 4 -118 -111 -146 -170 -59 -120 36 -320 187 -393 65 -31 180
-37 259 -14 62 18 174 71 265 127 89 53 190 129 190 141 0 6 -12 0 -27 -14
-56 -50 -61 -53 -80 -38 -16 13 -17 12 -5 -3 8 -10 9 -19 3 -22 -5 -4 -13 4
-17 16 l-7 23 -8 -22 c-5 -15 -14 -21 -24 -17 -11 5 -14 2 -9 -10 4 -10 1 -16
-7 -16 -8 0 -27 -14 -43 -30 -29 -31 -46 -34 -54 -10 -3 7 0 10 6 6 6 -3 21 4
35 18 22 22 23 24 5 35 -10 6 -18 18 -18 27 0 14 2 15 17 3 15 -13 15 -12 3 8
-12 18 -12 24 0 38 7 9 9 15 4 14 -21 -4 -26 2 -14 16 11 13 15 13 21 3 7 -10
9 -10 9 0 0 7 -10 16 -21 20 -20 8 -20 9 -4 25 9 9 12 17 7 17 -9 0 -12 21
-13 74 0 17 -1 17 -19 1 -18 -16 -18 -16 -13 4 3 12 12 21 19 21 11 0 13 9 8
41 -6 35 -4 41 15 46 24 6 28 21 6 29 -8 4 -15 14 -15 23 1 15 2 15 13 0 7 -9
18 -14 25 -11 9 3 10 7 2 17 -14 16 18 29 45 18 15 -5 17 -3 11 13 -6 15 -5
17 5 7 7 -7 17 -13 23 -13 5 0 6 3 2 7 -3 4 4 13 16 20 13 7 17 12 11 13 -24
0 -13 15 12 16 14 1 25 -2 25 -8 0 -5 -4 -6 -10 -3 -5 3 -10 1 -10 -4 0 -6 9
-10 20 -8 23 4 62 42 53 51 -4 3 -1 6 5 6 7 0 12 -4 12 -10 0 -5 4 -10 9 -10
4 0 6 12 4 28 -4 20 -2 23 6 12 14 -21 25 -6 12 18 -10 19 -6 32 10 32 5 0 5
-8 2 -17 -6 -15 -5 -16 9 -3 12 11 13 19 5 28 -7 10 -6 18 7 30 16 16 17 16
10 -1 -5 -13 -2 -16 10 -11 10 4 15 13 12 20 -3 8 -1 14 4 14 6 0 10 5 10 11
0 6 -9 8 -20 4 -24 -8 -25 3 -3 30 14 18 15 18 9 2 -4 -13 -2 -17 6 -14 7 2
12 12 12 21 -1 9 2 16 8 16 5 0 6 5 3 10 -3 6 4 10 15 10 16 0 20 -5 16 -15
-3 -8 -1 -15 4 -15 17 0 11 28 -7 39 -17 10 -17 10 0 11 9 0 17 5 17 10 0 6 8
10 18 10 26 0 34 11 21 27 -8 9 -8 13 -1 13 6 0 21 20 33 45 12 25 25 45 28
45 4 0 15 16 25 35 11 19 22 35 26 35 9 0 34 52 31 64 -4 16 11 46 20 41 5 -3
6 1 2 10 -3 10 0 20 6 25 15 9 21 116 8 143 -5 11 -4 23 1 30 16 21 14 94 -4
101 -8 3 -12 2 -9 -4 3 -6 1 -10 -5 -10 -6 0 -8 -4 -5 -10 3 -5 1 -10 -4 -10
-6 0 -10 10 -8 21 1 12 -4 24 -12 27 -10 3 -12 0 -8 -11 3 -9 -6 -29 -23 -49
-17 -18 -30 -41 -30 -50 0 -10 -4 -18 -10 -18 -5 0 -10 4 -10 8 0 5 -9 19 -20
32 -22 25 -26 20 -10 -11 8 -14 7 -19 -1 -19 -7 0 -10 -12 -7 -30 5 -30 4 -30
-14 -10 -11 11 -24 17 -30 14 -7 -4 -5 -10 6 -16 20 -11 21 -28 1 -28 -8 0
-16 -3 -16 -7 -7 -44 -6 -63 1 -68 11 -7 23 32 14 46 -4 8 -3 9 4 5 16 -10 15
-53 -1 -59 -20 -8 -41 9 -34 26 3 9 1 17 -6 20 -8 2 -6 12 7 32 10 15 14 30 9
34 -5 3 -8 20 -7 36 1 17 -5 43 -12 59 -8 16 -14 33 -14 38 0 6 -9 21 -20 35
-11 14 -20 34 -20 44 0 11 -7 19 -15 19 -8 0 -15 5 -15 11 0 16 -87 96 -110
102 -28 7 -35 -10 -8 -19 23 -7 58 -40 58 -55 0 -5 23 -48 52 -96 35 -61 47
-88 38 -91 -9 -3 -7 -10 8 -21 19 -14 21 -21 13 -61 -5 -28 -9 -35 -10 -19 -1
14 -7 31 -13 38 -11 11 -10 13 5 8 17 -6 17 -4 -2 22 -11 15 -18 31 -15 34 3
3 1 14 -6 24 -10 17 -11 16 -7 -3 3 -12 1 -28 -4 -35 -7 -11 -9 -11 -9 3 0 9
-6 18 -12 21 -10 3 -10 8 1 21 8 9 11 20 7 24 -4 4 -17 -4 -27 -18 -11 -14
-27 -33 -34 -42 -14 -17 -37 -23 -77 -19 -9 1 -19 -8 -23 -20 -5 -15 -10 -18
-18 -10 -7 7 -5 16 7 30 11 12 15 25 10 33 -6 10 -4 10 9 -1 16 -12 17 -12 11
5 -4 10 -13 27 -19 37 -12 17 -14 17 -29 1 -9 -9 -19 -14 -22 -12 -2 3 5 13
16 23 11 10 20 21 20 25 0 9 -59 -3 -100 -20 -22 -9 -33 -9 -52 1 -12 7 -26
12 -30 11 -5 -1 -8 7 -8 18 0 11 -7 20 -15 20 -8 0 -22 14 -30 31 -14 26 -14
35 -3 60 7 16 17 29 23 29 5 0 4 4 -4 9 -11 7 -10 14 5 37 11 15 13 25 7 21
-7 -5 -13 -4 -13 2 0 7 -39 11 -108 11 -85 0 -113 -4 -132 -17 -26 -17 -70
-64 -70 -73 0 -12 -56 -37 -70 -31 -31 13 -60 36 -60 49 0 7 -4 10 -10 7 -14
-9 -13 18 2 33 6 6 8 15 4 19 -4 5 -15 -1 -23 -12 -11 -15 -14 -15 -10 -3 8
23 -11 28 -104 28 -69 0 -79 -2 -79 -18z m535 -448 c21 14 65 12 65 -3 0 -3
17 -6 38 -7 20 -1 53 -4 72 -8 19 -3 57 -7 83 -8 38 -1 47 -5 45 -17 -2 -9
-10 -16 -18 -17 -8 0 -23 -4 -32 -8 -19 -8 -118 -2 -155 9 -13 4 -23 12 -23
17 0 6 -7 7 -15 4 -8 -3 -21 -9 -29 -12 -8 -3 -16 3 -19 16 -4 17 -11 20 -26
15 -17 -5 -21 -2 -20 17 1 18 2 19 6 5 4 -17 7 -17 28 -3z m442 -54 c-3 -11
-1 -23 4 -26 5 -3 9 0 9 5 0 6 5 11 11 11 5 0 7 -6 3 -12 -5 -8 0 -7 11 2 16
13 18 13 13 0 -3 -8 -1 -23 4 -34 7 -13 7 -16 -1 -12 -14 9 -14 -9 -1 -34 8
-16 8 -18 -5 -14 -8 4 -15 1 -15 -6 0 -6 -4 -8 -10 -5 -5 3 -10 -3 -10 -15 0
-12 -4 -19 -9 -15 -5 3 -12 1 -16 -5 -4 -6 -11 -7 -17 -4 -6 4 -8 2 -5 -3 4
-6 17 -8 31 -6 13 3 27 0 31 -6 5 -8 -1 -10 -21 -5 -24 6 -26 5 -20 -11 6 -18
5 -18 -15 1 -19 16 -21 16 -16 2 3 -10 -1 -19 -11 -23 -15 -5 -14 -9 8 -26 14
-12 19 -18 13 -14 -8 4 -13 0 -13 -9 0 -9 -5 -16 -11 -16 -6 0 -9 9 -6 19 6
23 -21 37 -37 21 -8 -8 -6 -9 8 -4 13 5 17 4 12 -4 -4 -7 -14 -12 -22 -12 -8
0 -13 -4 -10 -9 3 -5 -2 -8 -12 -7 -9 0 -17 -6 -17 -14 0 -8 5 -14 12 -13 6 1
14 -4 17 -13 5 -12 2 -12 -15 -4 -11 6 -24 22 -29 36 -5 13 -15 24 -22 24 -10
0 -9 -3 1 -9 9 -6 11 -18 8 -34 -6 -20 -12 -23 -32 -19 -16 3 -25 0 -25 -8 0
-22 -33 -40 -49 -27 -11 10 -13 8 -7 -11 8 -24 -8 -30 -34 -11 -11 8 -9 9 10
3 23 -6 24 -6 10 12 -24 30 -32 33 -71 28 -28 -4 -38 -2 -43 12 -6 14 -4 15 9
4 17 -14 19 -13 88 57 l22 21 12 -26 c11 -24 12 -24 7 -3 -4 17 -3 21 6 16 9
-5 10 -1 5 14 -6 20 -4 21 22 16 20 -5 24 -4 14 3 -11 8 -8 11 15 14 21 2 28
8 26 20 -2 12 3 16 18 13 13 -2 25 4 33 16 6 10 17 19 24 19 7 0 13 9 13 20 0
11 -4 20 -10 20 -5 0 -10 -4 -10 -9 0 -9 -73 -6 -90 4 -5 3 -10 1 -10 -5 0 -7
-7 -7 -22 2 -13 7 -32 13 -43 13 -11 1 -38 5 -60 10 -52 11 -57 12 -77 13 -10
1 -18 7 -18 12 0 7 6 7 18 2 9 -5 26 -6 37 -2 11 4 31 4 45 0 14 -3 41 -6 60
-5 34 2 49 6 99 26 16 7 26 7 31 -1 8 -13 61 4 108 37 42 28 46 28 39 3z"/>
<path d="M5580 8430 c-1 -8 -6 -53 -11 -100 -5 -47 -13 -123 -18 -170 -5 -47
-14 -105 -22 -130 -7 -25 -13 -49 -13 -55 -1 -5 -9 -25 -19 -42 -10 -18 -22
-44 -27 -59 l-10 -25 28 20 c58 41 134 115 144 140 6 14 12 21 15 14 2 -6 35
12 80 45 50 38 70 58 59 60 -9 2 -23 -2 -31 -8 -12 -10 -15 -9 -15 9 0 27 -25
38 -47 20 -13 -11 -15 -11 -9 -1 4 7 2 19 -4 27 -10 12 -9 15 4 15 9 0 16 4
16 9 0 12 -29 23 -41 16 -5 -4 -6 2 -2 12 6 16 5 16 -10 4 -12 -9 -17 -10 -17
-2 0 6 10 16 23 21 21 8 17 11 -23 14 -17 1 -23 47 -8 57 6 4 3 20 -8 40 -9
19 -20 45 -25 59 -4 14 -8 18 -9 10z"/>
<path d="M5252 6618 c2 -24 8 -33 23 -35 11 -1 30 -5 43 -9 20 -6 22 -3 23 27
2 34 2 34 8 -5 6 -41 31 -63 31 -28 0 11 6 24 13 30 10 8 12 2 9 -28 -5 -45
14 -63 35 -34 13 18 14 17 8 -8 -9 -35 -5 -36 115 -41 52 -3 87 -2 77 2 -16 6
28 25 193 83 35 13 8 28 -50 28 -40 0 -224 -31 -260 -44 -10 -4 -24 9 -39 34
-29 47 -30 47 -144 56 l-88 6 3 -34z"/>
<path d="M4563 6368 c-23 -37 -61 -128 -53 -128 5 0 11 4 14 9 8 12 66 20 66
9 0 -4 -4 -8 -8 -8 -9 0 -97 -87 -127 -125 -16 -19 -16 -19 -5 4 8 14 8 27 2
33 -14 14 -92 -84 -92 -116 0 -14 4 -26 10 -26 5 0 7 -7 4 -15 -11 -28 57 -13
139 30 31 16 44 33 67 85 16 36 27 66 25 68 -2 2 -22 -11 -44 -29 -23 -18 -43
-30 -46 -28 -2 3 19 23 47 45 67 51 87 73 95 104 3 14 14 36 25 49 29 38 24
50 -19 40 -52 -12 -96 -11 -88 1 3 6 4 10 1 10 -3 0 -8 -6 -13 -12z"/>
<path d="M5385 6289 l7 -52 -46 7 c-35 6 -50 4 -62 -8 -14 -15 -14 -16 4 -16
10 0 27 -9 37 -20 18 -20 18 -20 -16 -14 -30 5 -31 4 -14 -7 11 -6 28 -19 37
-27 16 -14 18 -12 24 18 l7 32 69 -6 c67 -7 68 -7 85 21 l16 29 76 -8 c42 -4
102 -10 134 -13 56 -6 57 -5 57 19 0 23 -7 26 -127 54 -71 17 -166 33 -211 36
l-84 7 7 -52z"/>
<path d="M5185 6169 c-9 -25 -32 -249 -26 -253 14 -9 157 -16 166 -9 6 4 16
20 22 36 10 21 19 27 43 27 23 0 33 6 39 23 12 32 6 37 -46 37 l-46 0 6 50 c7
54 -6 70 -55 70 -23 -1 -23 -1 -3 -16 11 -8 27 -19 35 -24 8 -5 12 -12 8 -16
-4 -4 -14 -2 -22 5 -11 9 -15 8 -20 -4 -4 -11 -15 -15 -33 -13 -22 2 -30 11
-44 53 -12 35 -19 45 -24 34z"/>
<path d="M3509 4810 c-6 -74 -41 -174 -126 -350 -14 -30 -38 -86 -54 -125 -15
-38 -46 -112 -69 -164 -45 -102 -78 -216 -110 -380 -11 -57 -31 -141 -44 -185
-13 -45 -34 -121 -46 -171 -12 -49 -35 -139 -51 -200 -15 -60 -31 -128 -34
-150 -4 -22 -19 -76 -34 -120 -16 -44 -41 -118 -56 -165 -28 -90 -93 -251
-125 -312 -11 -20 -24 -53 -29 -75 -10 -38 -71 -212 -134 -379 -19 -49 -38
-106 -42 -125 -8 -39 -73 -208 -87 -226 -6 -7 -6 -18 -2 -24 4 -7 3 -9 -3 -6
-6 4 -15 -6 -22 -21 -11 -26 -11 -26 5 -7 18 21 17 16 -11 -53 -9 -23 -21 -42
-26 -42 -4 0 -13 -10 -19 -22 -11 -22 -10 -22 4 -4 9 11 16 15 16 10 0 -6 -11
-20 -25 -32 -23 -20 -57 -85 -53 -100 1 -4 -14 -32 -34 -62 -99 -153 -131
-247 -109 -326 6 -22 16 -113 22 -204 14 -228 13 -225 114 -312 100 -86 173
-128 222 -128 49 0 113 -21 113 -36 0 -7 -16 -75 -35 -151 -19 -76 -35 -144
-35 -151 0 -10 263 -12 1433 -9 787 3 1437 6 1444 7 6 2 9 10 6 18 -3 7 -9 10
-12 5 -9 -12 -44 -16 -37 -4 4 5 1 13 -5 17 -6 3 -15 0 -20 -7 -12 -21 -22 -3
-10 19 11 20 6 32 -13 32 -6 0 -5 -4 3 -9 9 -6 10 -11 3 -15 -14 -8 -63 33
-56 46 3 5 11 5 18 -1 19 -16 44 33 27 53 -9 10 -9 15 -1 18 7 2 15 19 19 38
5 26 12 35 27 33 10 -1 22 4 26 10 11 18 10 49 -2 42 -5 -3 -10 -2 -10 2 0 5
-14 10 -31 11 -22 2 -30 -1 -26 -10 3 -7 8 -22 12 -33 6 -18 5 -18 -5 -2 -8
13 -16 15 -29 7 -16 -8 -18 -5 -17 30 0 31 3 36 14 28 10 -9 17 -7 30 6 16 17
16 18 -6 11 -23 -7 -23 -7 -7 19 10 14 25 26 35 26 21 0 30 19 30 67 0 28 3
34 16 29 9 -3 18 -6 20 -6 2 0 4 -7 4 -16 0 -8 4 -13 9 -9 18 11 23 -17 6 -33
-10 -10 -15 -11 -11 -5 5 9 2 11 -9 7 -11 -5 -13 -10 -5 -19 13 -15 -3 -30
-20 -20 -5 3 -10 -3 -10 -14 0 -19 2 -20 20 -9 16 11 22 9 36 -7 14 -18 15
-18 10 -2 -3 10 -2 15 4 12 12 -8 59 26 60 43 0 6 -4 12 -8 12 -16 0 -7 71 10
81 10 5 14 17 11 29 -4 15 0 20 16 20 12 0 21 -6 21 -14 0 -8 5 -18 10 -21 6
-3 10 3 10 14 0 11 -9 22 -20 26 -11 4 -17 11 -14 17 4 7 9 6 14 -1 5 -9 10
-8 19 3 14 16 -2 32 -20 20 -7 -4 -10 -1 -7 7 3 8 13 13 23 11 10 -2 14 1 10
7 -3 6 -13 11 -21 11 -8 0 -12 5 -9 10 4 6 2 17 -5 25 -8 10 -8 15 1 21 7 4
10 3 7 -2 -8 -14 30 -46 38 -32 4 7 2 14 -4 16 -7 2 -12 10 -12 18 0 32 40 3
41 -31 0 -20 0 -20 9 0 6 15 1 27 -18 48 -14 15 -21 27 -15 27 6 0 17 -10 26
-23 15 -21 16 -21 30 -3 10 14 16 16 22 6 4 -7 3 -15 -3 -19 -6 -4 -5 -11 4
-19 8 -7 15 -10 15 -7 1 3 3 10 4 15 1 6 3 13 4 16 0 4 8 1 16 -6 12 -10 15
-9 16 6 1 11 2 24 4 29 1 6 3 18 3 28 1 9 9 17 17 17 8 0 15 7 15 16 0 8 -4
12 -10 9 -6 -4 -7 1 -3 11 5 13 3 16 -10 11 -11 -4 -17 -1 -17 9 0 11 6 13 20
9 11 -4 20 -2 20 4 0 6 -3 10 -7 10 -37 -6 -50 2 -48 31 1 24 -1 28 -12 19 -9
-8 -13 -8 -13 0 0 6 -7 11 -16 11 -14 0 -14 1 0 16 19 18 21 28 4 18 -7 -5 -9
-2 -6 7 22 54 22 53 2 45 -13 -5 -9 3 13 26 22 22 29 38 24 47 -9 14 -4 48 9
56 6 4 8 -2 12 -44 2 -16 8 -18 38 -14 19 3 39 10 44 14 14 13 36 11 36 -2 0
-6 -7 -8 -16 -5 -10 4 -13 2 -8 -6 5 -7 7 -25 6 -41 -2 -24 1 -28 14 -23 13 5
14 4 6 -7 -8 -10 -7 -20 3 -40 14 -28 8 -36 -13 -15 -10 10 -10 5 -1 -22 9
-24 9 -35 1 -38 -6 -2 -8 -11 -5 -20 4 -14 3 -14 -5 -3 -6 8 -7 21 -4 30 5 13
2 12 -12 -2 -14 -14 -16 -21 -7 -30 6 -6 11 -21 11 -32 0 -33 79 -95 80 -62 1
7 7 1 15 -13 15 -27 10 -43 -6 -20 -8 12 -12 12 -16 2 -3 -8 -11 -4 -25 13
-21 27 -44 34 -34 10 3 -9 0 -15 -9 -15 -8 0 -15 5 -15 12 0 9 -3 9 -11 1 -6
-6 -18 -9 -25 -6 -10 4 -13 -5 -12 -31 1 -22 4 -32 9 -24 4 6 5 16 2 21 -3 5
1 13 8 18 20 13 29 11 29 -6 0 -8 -4 -15 -10 -15 -18 0 -11 -29 9 -40 28 -15
51 -12 51 5 0 8 4 15 9 15 6 0 9 -15 8 -34 -2 -24 -11 -41 -29 -55 -33 -26
-41 -26 -33 -1 3 11 1 28 -5 37 -10 16 -11 16 -6 1 3 -10 1 -20 -5 -23 -5 -4
-7 -11 -4 -16 3 -5 -1 -6 -9 -3 -24 9 -36 -28 -15 -48 16 -15 19 -15 39 -1 18
13 24 13 30 2 5 -7 6 -17 3 -23 -3 -5 -7 -25 -9 -45 -1 -19 -10 -40 -18 -47
-9 -6 -16 -23 -16 -37 0 -15 -7 -35 -15 -44 -8 -10 -21 -27 -30 -38 -13 -17
-16 -18 -25 -5 -7 11 -5 16 10 18 19 3 27 31 14 45 -8 7 -34 -17 -34 -31 0 -6
-5 -12 -11 -14 -8 -3 -5 -10 6 -22 19 -18 16 -22 -75 -116 -8 -8 -17 -24 -19
-35 -3 -19 -2 -19 17 -2 16 14 29 17 53 12 30 -7 31 -6 25 19 -5 19 -2 28 9
32 8 4 15 15 15 26 0 10 5 16 10 13 6 -3 10 1 10 9 0 9 7 16 15 16 8 0 15 5
15 12 0 6 10 2 23 -10 29 -27 40 -28 32 -3 -3 11 -1 22 5 26 5 3 10 11 10 17
0 7 -5 6 -14 -1 -23 -19 -40 19 -21 46 8 11 12 23 8 26 -3 3 7 9 21 13 20 5
31 2 41 -12 7 -11 17 -15 21 -11 5 4 2 12 -6 17 -7 4 -15 24 -16 42 -2 27 1
34 16 35 10 1 26 -7 36 -18 16 -17 16 -19 1 -19 -10 0 -17 5 -17 10 0 6 -6 10
-12 10 -7 -1 -3 -9 10 -19 22 -19 31 -38 12 -26 -6 4 -10 -16 -10 -54 0 -39
-5 -65 -15 -74 -13 -13 -13 -16 1 -21 10 -4 13 -13 9 -29 -5 -17 -2 -26 10
-31 10 -3 15 -13 12 -20 -7 -18 14 -66 29 -66 15 0 25 52 12 67 -6 8 -6 19 1
32 9 16 7 23 -11 37 -15 10 -17 14 -6 11 12 -4 15 -2 11 9 -3 7 0 14 6 14 8 0
10 16 8 50 -4 43 -3 49 9 39 11 -9 14 -8 14 5 0 9 5 16 12 16 9 0 9 3 0 12
-10 10 -15 10 -22 -2 -17 -26 -12 11 5 44 17 32 20 70 5 61 -6 -4 -8 -10 -6
-14 3 -4 1 -13 -4 -21 -7 -12 -11 -12 -26 1 -16 13 -17 12 -11 -5 6 -16 5 -17
-8 -6 -8 7 -15 18 -15 25 0 8 -4 15 -10 17 -11 4 -1 48 11 48 5 0 9 -6 9 -12
0 -9 4 -8 10 2 5 8 10 20 10 25 0 6 -5 3 -10 -5 -11 -16 -11 -15 -15 17 -1 12
1 20 6 18 4 -3 10 -1 13 4 4 5 2 12 -4 16 -13 8 -13 35 1 35 5 0 7 -5 4 -10
-8 -13 16 -13 35 1 11 8 12 12 3 16 -7 2 -13 9 -13 15 0 5 13 0 29 -11 25 -18
30 -19 35 -5 4 9 2 13 -5 8 -6 -4 -15 0 -20 7 -13 21 -11 29 9 29 16 1 16 2
-1 14 -18 14 -18 14 0 19 14 4 13 5 -5 6 -13 0 -21 5 -18 9 2 4 -9 23 -25 41
-23 27 -30 30 -35 17 -3 -9 -4 -23 0 -31 7 -20 -4 -19 -20 2 -7 10 -20 18 -30
18 -14 0 -20 10 -25 37 -3 20 -2 35 3 32 4 -3 8 5 9 18 0 13 1 40 1 61 1 24
-6 48 -20 67 -13 18 -19 36 -15 46 6 16 7 16 14 -2 7 -17 8 -17 8 -1 1 10 5
15 11 12 6 -4 7 2 1 18 -5 13 -9 32 -8 43 1 10 -3 19 -10 19 -20 0 -24 12 -8
25 13 11 18 10 29 -6 18 -24 34 -10 18 16 -9 15 -9 18 1 14 8 -3 13 4 14 17 2
17 -2 20 -18 16 -22 -6 -21 -5 3 45 15 32 23 35 32 11 3 -10 17 -35 31 -56 14
-20 22 -37 18 -37 -5 0 -17 13 -28 29 -11 17 -21 28 -23 26 -6 -6 28 -65 39
-65 6 0 8 -4 5 -9 -3 -5 2 -15 11 -22 12 -10 14 -10 9 -1 -4 7 -2 12 5 12 7 0
9 8 6 21 -5 19 -4 19 11 6 9 -8 23 -12 30 -10 7 3 13 -1 11 -8 -4 -30 1 -69 9
-69 5 0 7 14 4 30 -3 23 1 36 18 50 13 11 18 20 12 20 -6 0 -14 -4 -17 -10
-11 -18 -25 -11 -25 12 0 21 0 21 -15 2 -11 -15 -14 -16 -15 -4 0 9 -12 23
-28 32 -43 26 -65 56 -68 92 -3 34 10 49 46 51 9 0 14 9 13 20 -1 17 2 16 22
-8 13 -15 35 -31 49 -37 18 -7 23 -14 19 -30 -4 -13 -11 -19 -20 -16 -8 3 -16
6 -19 6 -2 0 -1 7 2 15 5 11 -1 15 -20 15 -14 0 -26 5 -26 11 0 5 5 7 10 4 6
-3 10 -1 10 5 0 17 -25 6 -26 -11 -1 -12 -11 -41 -20 -59 -1 -3 2 -12 8 -20 8
-12 9 -11 4 4 -6 16 -4 17 9 6 15 -12 16 -11 19 10 0 6 5 9 11 8 5 -2 9 -6 8
-10 -5 -15 27 -15 44 1 20 19 54 14 68 -9 6 -9 2 -9 -15 0 -18 10 -21 9 -18
-2 3 -7 14 -14 27 -16 12 -2 21 -9 20 -15 -1 -7 3 -25 9 -40 16 -39 15 -50 -5
-43 -15 6 -16 5 -1 -11 16 -18 14 -48 -3 -37 -5 3 -9 -2 -9 -10 0 -9 -4 -16
-10 -16 -6 0 -5 -10 2 -26 9 -19 9 -27 0 -32 -6 -5 -8 -13 -3 -21 5 -7 5 -29
0 -49 -4 -20 -6 -38 -4 -40 2 -2 23 36 47 85 25 48 58 108 74 133 44 70 54 91
47 103 -3 5 -1 7 4 4 9 -6 65 90 213 368 18 33 48 86 67 117 42 71 132 259
167 353 15 39 34 86 43 105 8 19 42 114 75 210 33 96 81 227 108 290 54 130
94 254 105 320 10 70 55 289 71 350 25 95 37 209 39 390 1 96 4 220 8 275 4
55 9 156 12 225 8 171 24 416 31 468 l6 44 -469 -7 c-257 -4 -472 -11 -477
-16 -6 -5 -2 -9 12 -9 11 0 25 -6 29 -13 6 -9 37 -13 103 -13 52 -1 115 -4
140 -7 25 -4 81 -9 125 -11 44 -3 94 -9 110 -14 17 -5 99 -8 183 -7 84 1 152
-1 152 -5 0 -3 -5 -11 -10 -18 -7 -9 -7 -9 2 -2 17 14 32 13 21 -2 -5 -7 -9
-28 -7 -45 1 -25 -3 -33 -14 -33 -12 0 -9 -5 8 -17 14 -9 27 -18 29 -19 2 -2
-6 -28 -19 -58 -12 -30 -19 -59 -16 -65 4 -5 2 -12 -4 -16 -6 -4 -4 -15 7 -31
9 -14 12 -24 7 -23 -27 5 -36 -1 -24 -16 7 -8 17 -12 23 -8 7 4 8 0 3 -13 -5
-10 -11 -28 -14 -39 -3 -11 -16 -29 -29 -41 -20 -17 -22 -24 -14 -47 7 -18 7
-28 0 -33 -8 -4 -7 -9 1 -14 9 -6 6 -11 -10 -20 -18 -10 -20 -14 -9 -21 12 -8
11 -12 -3 -23 -24 -18 -23 -29 1 -21 11 3 23 0 27 -6 5 -9 2 -10 -9 -6 -9 3
-19 2 -23 -4 -3 -6 -17 -14 -31 -20 -13 -5 -22 -13 -19 -18 3 -4 -5 -30 -18
-56 -21 -45 -23 -47 -30 -24 -7 20 -9 21 -13 6 -3 -10 0 -23 5 -30 5 -7 14
-27 21 -46 10 -31 9 -36 -17 -58 l-27 -24 28 11 c41 15 43 14 44 -30 0 -24 -4
-40 -11 -40 -8 0 -8 -2 1 -8 16 -10 12 -64 -4 -57 -15 5 -16 -4 -3 -25 5 -9 5
-19 -2 -27 -5 -7 -8 -19 -5 -27 3 -8 -1 -17 -9 -20 -8 -3 -14 -15 -14 -26 0
-11 -4 -20 -10 -20 -5 0 -10 -11 -10 -24 0 -16 -7 -26 -22 -30 -22 -5 -22 -6
-3 -20 13 -10 15 -15 6 -16 -7 0 -11 -6 -8 -14 6 -16 -10 -36 -27 -32 -6 2 -8
1 -3 -1 4 -3 7 -11 7 -19 0 -11 -4 -12 -19 -4 -26 13 -51 13 -51 -2 0 -6 3 -8
6 -5 12 11 43 -13 38 -28 -4 -8 -10 -12 -15 -9 -5 3 -9 -2 -9 -10 0 -9 -15
-23 -32 -33 l-33 -17 33 -7 c43 -9 57 -24 14 -16 -31 6 -32 6 -21 -16 9 -18 9
-20 -2 -9 -24 22 -36 13 -34 -26 1 -21 5 -44 9 -50 11 -18 26 -14 19 6 -5 13
-3 15 7 5 11 -10 10 -17 -4 -38 -17 -26 -17 -27 2 -21 17 6 19 3 15 -14 -7
-26 -30 -26 -38 0 -10 31 -44 25 -59 -10 -7 -17 -14 -28 -17 -26 -10 10 -59
14 -59 5 0 -5 7 -9 16 -9 8 0 12 -5 9 -11 -5 -7 -15 -5 -32 6 -24 16 -25 16
-18 -7 7 -23 7 -23 -11 2 -10 14 -19 29 -19 35 -1 21 -18 61 -34 78 -15 17
-14 20 4 33 16 12 17 14 2 14 -10 0 -16 7 -15 18 3 44 -1 53 -27 46 -16 -4
-25 -2 -25 6 0 6 5 8 10 5 20 -12 32 7 15 25 -20 22 -30 84 -12 77 7 -2 21 -1
32 3 11 4 25 3 32 -2 8 -7 11 -4 10 10 0 12 -6 18 -14 15 -7 -3 -13 -1 -13 5
0 6 -3 19 -6 29 -6 16 -5 16 9 -2 16 -20 16 -20 17 3 0 12 3 21 8 21 4 -1 16
-1 27 0 14 1 16 4 7 9 -7 5 -10 16 -7 24 4 9 1 19 -5 23 -9 6 -9 10 1 16 11 7
12 12 2 28 -8 13 -9 22 -3 26 15 9 12 51 -5 65 -8 7 -13 16 -10 20 3 5 1 11
-5 15 -5 3 -10 13 -10 21 0 10 5 12 13 8 7 -5 6 0 -3 11 -9 11 -10 16 -2 11 7
-4 12 -1 12 8 0 10 -6 13 -17 9 -17 -6 -17 -5 0 14 9 11 17 28 16 39 -4 41 1
65 12 58 9 -5 10 4 5 30 -6 32 -5 37 11 34 12 -2 19 4 21 20 2 12 -1 22 -7 22
-6 0 -11 7 -11 15 0 8 -4 15 -10 15 -5 0 -10 4 -10 8 0 11 39 12 45 1 4 -5 11
-9 17 -9 6 0 3 9 -7 20 -10 11 -26 20 -35 20 -10 0 -21 7 -24 16 -4 10 -2 13
7 8 7 -5 5 0 -3 11 -14 17 -13 18 8 13 12 -4 22 -2 22 3 0 5 -5 9 -11 9 -5 0
-7 5 -4 10 4 6 11 8 16 5 15 -10 10 5 -13 43 -12 20 -16 32 -10 28 21 -13 13
14 -18 59 -25 36 -35 43 -55 39 -23 -4 -25 -2 -25 36 0 29 4 39 12 34 7 -4 8
-3 4 5 -4 6 -13 11 -19 10 -18 -3 -47 12 -47 23 0 6 7 7 15 4 52 -21 51 -21
36 -3 -26 33 12 18 49 -18 19 -19 38 -35 44 -35 5 0 0 9 -12 20 -12 12 -22 27
-22 35 0 9 -9 15 -21 15 -12 0 -37 17 -57 38 -27 28 -31 30 -19 10 23 -37 21
-59 -2 -30 -11 12 -24 22 -31 22 -6 0 -8 5 -4 12 4 6 1 16 -7 22 -8 6 -23 28
-32 48 -10 20 -22 40 -28 44 -13 8 -30 50 -35 88 -2 16 -9 33 -16 38 -10 6
-11 8 0 8 7 0 -4 16 -24 35 -19 19 -33 39 -30 44 8 12 -34 17 -96 13 l-48 -4
0 -37 c0 -40 21 -197 46 -351 9 -52 34 -159 56 -238 36 -129 39 -146 29 -192
-6 -27 -8 -57 -4 -66 4 -11 3 -15 -5 -10 -6 3 -14 1 -18 -5 -4 -8 -3 -9 4 -5
12 7 14 2 14 -59 0 -58 -2 -66 -10 -61 -5 3 -7 -7 -4 -22 2 -15 -6 -66 -18
-112 -12 -47 -23 -95 -25 -107 -4 -28 -27 -95 -37 -109 -5 -6 -6 -18 -2 -27 3
-8 1 -18 -5 -22 -6 -3 -11 -17 -11 -30 0 -13 -6 -30 -14 -38 -19 -19 -46 -108
-56 -182 -5 -33 -13 -61 -19 -63 -6 -2 -11 -10 -11 -18 0 -9 -4 -12 -10 -9 -6
4 -10 -5 -10 -19 0 -15 -6 -26 -13 -26 -19 0 -45 -60 -59 -134 -10 -50 -15
-61 -23 -49 -8 11 -13 4 -21 -36 -6 -27 -7 -48 -2 -45 4 3 8 12 8 20 0 8 5 14
10 14 6 0 8 -12 5 -27 -6 -26 -5 -27 9 -9 8 10 19 15 24 12 6 -3 13 1 16 10 4
9 2 13 -5 8 -7 -4 -10 -1 -7 7 3 8 12 13 20 13 10 -1 14 5 11 15 -3 13 2 16
24 15 27 -1 28 -3 25 -45 -2 -24 -21 -114 -42 -199 -21 -85 -44 -193 -50 -240
-26 -188 -67 -356 -106 -430 -27 -52 -123 -276 -130 -305 -18 -75 -124 -289
-202 -410 -35 -55 -71 -110 -79 -123 l-14 -22 -252 5 c-490 11 -801 38 -987
85 -165 42 -446 148 -602 226 -104 52 -221 130 -308 206 -41 35 -97 79 -123
97 -27 18 -61 53 -76 77 -32 50 -51 44 -51 -16 0 -22 -17 -70 -44 -126 -25
-50 -47 -107 -51 -126 -4 -20 -19 -48 -35 -63 l-28 -27 9 48 c10 52 8 125 -3
118 -4 -2 -10 1 -14 7 -5 8 -3 9 6 4 10 -6 11 -4 6 11 -5 10 -8 26 -9 34 0 8
-5 21 -11 29 -8 11 -8 15 0 18 8 3 10 18 7 41 -6 46 18 110 80 212 25 41 67
111 93 155 26 44 59 96 74 115 33 43 47 84 65 182 8 43 26 106 40 140 27 64
41 102 187 523 l83 240 -3 680 c-2 616 -8 799 -31 950 l-7 50 -5 -75z m2909
-1095 c15 -90 2 -205 -33 -287 -17 -43 -23 -47 -21 -16 2 31 -17 32 -32 0 -11
-23 -10 -29 5 -41 17 -12 16 -13 -3 -7 -19 6 -21 3 -18 -31 2 -43 -18 -73 -50
-73 -21 -1 -21 -1 1 -13 l22 -12 -30 -17 -29 -17 6 42 c4 23 10 47 14 52 4 6
15 37 24 70 10 33 22 71 28 85 6 14 12 32 14 40 1 8 14 56 28 105 14 50 31
116 38 148 13 65 21 59 36 -28z m-465 -2102 c-10 -8 -14 -16 -8 -19 13 -5 7
-72 -6 -80 -5 -3 -9 -13 -9 -22 1 -13 4 -11 14 7 11 21 14 21 20 6 3 -10 1
-23 -5 -31 -8 -9 -7 -18 1 -31 10 -16 11 -16 6 0 -7 23 5 22 32 -3 25 -24 32
-25 32 -5 0 8 5 15 10 15 17 0 11 -25 -10 -43 -18 -15 -24 -14 -22 5 1 3 -4 8
-11 11 -8 3 -13 -11 -14 -47 -1 -28 -7 -52 -12 -54 -6 -2 -9 -8 -5 -13 3 -5 2
-9 -2 -9 -11 0 -33 34 -34 53 0 9 -4 17 -10 17 -5 0 -10 9 -10 20 0 11 -5 20
-11 20 -5 0 -7 -4 -4 -10 3 -5 1 -10 -4 -10 -6 0 -11 9 -11 20 0 11 5 20 11
20 5 0 7 4 4 10 -3 5 -1 19 5 30 8 14 8 20 0 20 -6 0 -2 10 10 22 11 12 20 27
20 32 0 6 -5 4 -10 -4 -7 -11 -10 -12 -10 -2 0 7 7 20 15 28 10 11 12 21 5 39
-7 19 -6 23 5 18 8 -3 15 0 15 7 0 6 5 8 11 5 6 -5 4 -12 -8 -22z m-3077 -546
c-40 -128 -73 -207 -86 -207 -5 0 -12 24 -15 54 -11 82 14 152 78 225 28 32
54 55 55 50 2 -5 -12 -60 -32 -122z"/>
<path d="M5898 160 c-19 -18 -24 -45 -9 -54 5 -4 12 0 15 6 5 11 7 11 12 0 3
-6 9 -10 13 -8 4 3 8 -1 8 -10 0 -10 -7 -12 -21 -8 -16 5 -18 3 -9 -6 7 -8 8
-22 2 -42 -6 -23 -5 -29 5 -25 8 3 17 3 20 0 3 -3 22 -6 41 -7 26 -1 37 4 41
17 3 10 3 21 0 24 -3 3 1 12 9 19 15 16 8 57 -9 51 -6 -3 -17 1 -23 9 -10 10
-10 13 0 17 9 4 9 7 0 18 -11 11 -13 11 -13 0 0 -8 -6 -11 -16 -7 -8 3 -12 2
-9 -4 3 -6 1 -10 -5 -10 -6 0 -8 -4 -5 -10 3 -5 2 -10 -4 -10 -16 0 -25 22
-12 30 9 5 9 9 -1 17 -9 8 -18 6 -30 -7z"/>
</g>
</svg>
